<svg width="20" height="20" viewBox="0 0 43 39" fill="none" xmlns="http://www.w3.org/2000/svg">
<path fill-rule="evenodd" clip-rule="evenodd" d="M21.2956 5.26195C20.4549 5.12089 19.659 5.6881 19.5179 6.52885L19.0908 9.07488C18.6095 9.08065 18.1303 9.12666 17.6598 9.213C16.6856 9.39177 15.7651 9.74036 14.9518 10.2419C14.1383 10.7436 13.4472 11.389 12.9213 12.1441C12.596 12.6112 12.3383 13.114 12.1536 13.6408L11.559 13.5411C10.9985 13.4471 10.4679 13.8252 10.3739 14.3857L10.2036 15.4006C10.1096 15.9611 10.4877 16.4917 11.0482 16.5857L11.5556 16.6709C11.5539 16.6813 11.5525 16.6919 11.5513 16.7025L10.0449 31.1228C9.96024 31.9337 10.5207 32.6706 11.3248 32.8055L19.5726 34.1893C19.8529 34.2364 20.1182 34.0473 20.1652 33.767C20.2122 33.4868 20.0232 33.2215 19.7429 33.1745L11.495 31.7907C11.227 31.7457 11.0402 31.5 11.0684 31.2298L12.2501 19.9177L23.2234 21.7588C23.5036 21.8058 23.7689 21.6167 23.8159 21.3365C23.863 21.0562 23.6739 20.7909 23.3936 20.7439L12.3573 18.8923L12.5715 16.8413L25.7628 19.0545L22.2018 34.074C22.1362 34.3505 22.3072 34.6278 22.5837 34.6934C22.8602 34.7589 23.1375 34.5879 23.2031 34.3114L26.772 19.2585C26.7747 19.2473 26.7769 19.2361 26.7788 19.225L27.2862 19.3101C27.8468 19.4041 28.3774 19.026 28.4714 18.4655L28.6417 17.4506C28.7357 16.8901 28.3576 16.3595 27.7971 16.2655L27.2025 16.1657C27.1999 15.6074 27.1204 15.0481 26.9653 14.5004C26.7147 13.615 26.272 12.7794 25.6668 12.0397C25.0617 11.3001 24.3054 10.6702 23.4429 10.1833C23.0263 9.94809 22.5884 9.74823 22.1354 9.5857L22.5625 7.03967C22.7036 6.19892 22.1364 5.40301 21.2956 5.26195ZM21.1408 9.29467L21.5477 6.8694C21.5947 6.58915 21.4056 6.32384 21.1254 6.27682C20.8451 6.2298 20.5798 6.41888 20.5328 6.69913L20.1259 9.1244C20.2963 9.14276 20.4663 9.16616 20.6358 9.1946C20.8053 9.22303 20.9737 9.25642 21.1408 9.29467ZM19.9553 10.1413C20.1257 10.1583 20.2959 10.181 20.4656 10.2095C20.6352 10.2379 20.8035 10.272 20.9702 10.3115L20.1855 14.9884L19.1706 14.8181L19.9553 10.1413ZM18.9174 10.1084C18.5564 10.1215 18.1979 10.1605 17.8455 10.2252C16.9911 10.382 16.1916 10.6863 15.4919 11.1178C14.7923 11.5493 14.2069 12.0987 13.7657 12.7322C13.5279 13.0737 13.3341 13.4364 13.1866 13.8142L18.1557 14.6479L18.9174 10.1084ZM21.2004 15.1587L21.962 10.6192C22.2989 10.7495 22.625 10.9033 22.937 11.0794C23.6935 11.5065 24.3498 12.0551 24.8704 12.6913C25.3909 13.3274 25.7649 14.0379 25.9752 14.7807C26.0885 15.1811 26.1533 15.5872 26.1695 15.9924L21.2004 15.1587ZM11.3888 14.556L27.6268 17.2803L27.4565 18.2952L11.2185 15.5709L11.3888 14.556Z" fill="white"/>
<path fill-rule="evenodd" clip-rule="evenodd" d="M19.753 23.7851C19.612 24.6259 18.8161 25.1931 17.9753 25.0521C17.1346 24.911 16.5674 24.1151 16.7084 23.2743C16.8495 22.4336 17.6454 21.8664 18.4861 22.0074C19.3269 22.1485 19.8941 22.9444 19.753 23.7851ZM18.7382 23.6149C18.6912 23.8951 18.4258 24.0842 18.1456 24.0372C17.8653 23.9902 17.6763 23.7249 17.7233 23.4446C17.7703 23.1644 18.0356 22.9753 18.3159 23.0223C18.5961 23.0693 18.7852 23.3346 18.7382 23.6149Z" fill="white"/>
<path fill-rule="evenodd" clip-rule="evenodd" d="M17.2868 27.1657C17.1457 28.0065 16.3498 28.5737 15.5091 28.4326C14.6683 28.2916 14.1011 27.4956 14.2422 26.6549C14.3832 25.8141 15.1791 25.2469 16.0199 25.388C16.8606 25.529 17.4278 26.325 17.2868 27.1657ZM16.2719 26.9954C16.2249 27.2757 15.9596 27.4648 15.6793 27.4177C15.3991 27.3707 15.21 27.1054 15.257 26.8252C15.3041 26.5449 15.5694 26.3558 15.8496 26.4029C16.1299 26.4499 16.3189 26.7152 16.2719 26.9954Z" fill="white"/>
<path fill-rule="evenodd" clip-rule="evenodd" d="M14.867 30.2695C14.7259 31.1102 13.93 31.6775 13.0893 31.5364C12.2485 31.3953 11.6813 30.5994 11.8224 29.7587C11.9634 28.9179 12.7593 28.3507 13.6001 28.4918C14.4408 28.6328 15.008 29.4287 14.867 30.2695ZM13.8521 30.0992C13.8051 30.3795 13.5398 30.5685 13.2595 30.5215C12.9793 30.4745 12.7902 30.2092 12.8372 29.929C12.8842 29.6487 13.1496 29.4596 13.4298 29.5067C13.7101 29.5537 13.8991 29.819 13.8521 30.0992Z" fill="white"/>
<path fill-rule="evenodd" clip-rule="evenodd" d="M18.5575 30.8887C18.4164 31.7294 17.6205 32.2966 16.7797 32.1556C15.939 32.0145 15.3718 31.2186 15.5128 30.3779C15.6539 29.5371 16.4498 28.9699 17.2905 29.1109C18.1313 29.252 18.6985 30.0479 18.5575 30.8887ZM17.5426 30.7184C17.4956 30.9986 17.2302 31.1877 16.95 31.1407C16.6697 31.0937 16.4807 30.8284 16.5277 30.5481C16.5747 30.2679 16.84 30.0788 17.1203 30.1258C17.4005 30.1728 17.5896 30.4381 17.5426 30.7184Z" fill="white"/>
<path fill-rule="evenodd" clip-rule="evenodd" d="M20.4702 32.7748C21.3109 32.9158 22.1069 32.3486 22.2479 31.5078C22.389 30.6671 21.8218 29.8712 20.981 29.7301C20.1403 29.5891 19.3443 30.1563 19.2033 30.997C19.0622 31.8378 19.6294 32.6337 20.4702 32.7748ZM20.6405 31.7599C20.9207 31.8069 21.186 31.6178 21.233 31.3376C21.2801 31.0573 21.091 30.792 20.8107 30.745C20.5305 30.698 20.2652 30.887 20.2182 31.1673C20.1711 31.4475 20.3602 31.7129 20.6405 31.7599Z" fill="white"/>
<path fill-rule="evenodd" clip-rule="evenodd" d="M19.1995 29.0518C20.0403 29.1928 20.8362 28.6256 20.9773 27.7849C21.1183 26.9441 20.5511 26.1482 19.7104 26.0072C18.8696 25.8661 18.0737 26.4333 17.9326 27.2741C17.7916 28.1148 18.3588 28.9107 19.1995 29.0518ZM19.3698 28.0369C19.6501 28.0839 19.9154 27.8949 19.9624 27.6146C20.0094 27.3344 19.8203 27.069 19.5401 27.022C19.2598 26.975 18.9945 27.1641 18.9475 27.4443C18.9005 27.7246 19.0896 27.9899 19.3698 28.0369Z" fill="white"/>
</svg>
