<svg width="24" height="24" viewBox="0 0 24 24" fill="none" xmlns="http://www.w3.org/2000/svg">
<path d="M16.6502 7.2H16.6602M8.00024 20H16.0002C18.2094 20 20.0002 18.2091 20.0002 16V8C20.0002 5.79086 18.2094 4 16.0002 4H8.00024C5.79111 4 4.00024 5.79086 4.00024 8V16C4.00024 18.2091 5.79111 20 8.00024 20ZM15.7502 12C15.7502 14.0711 14.0713 15.75 12.0002 15.75C9.92918 15.75 8.25024 14.0711 8.25024 12C8.25024 9.92893 9.92918 8.25 12.0002 8.25C14.0713 8.25 15.7502 9.92893 15.7502 12Z" stroke="#C3A155" stroke-width="2" stroke-linecap="round" stroke-linejoin="round"/>
</svg>
