<svg width="148" height="50" viewBox="0 0 148 50" fill="none" xmlns="http://www.w3.org/2000/svg">
<path d="M22.5204 17.0529L22.0344 16.6814C21.9946 16.422 21.8007 16.3589 21.5857 16.3542L21.2983 16.1206C21.1638 16.0903 21.0368 16.0334 20.9248 15.9531C20.8128 15.8728 20.7181 15.7708 20.6463 15.6532C20.7795 15.3027 21.0739 15.1859 21.4058 15.1111H21.3894C21.4408 15.3658 21.6231 15.3962 21.8428 15.3915L22.1068 15.6252L22.0881 15.6041C22.1512 15.8261 22.3218 15.8752 22.5274 15.8846L22.7798 16.0715L23.0532 16.3052L23.0345 16.2865C23.315 16.5692 23.5837 17.151 23.9249 16.3332C24.2941 16.0364 24.1585 15.6322 24.1585 15.249C24.1585 13.424 24.1585 11.6014 24.1726 9.77641C24.1726 9.5147 24.009 9.14317 24.446 9.01465C24.5044 9.08241 24.5932 9.13616 24.5932 9.1899C24.6119 10.9354 24.5932 12.6809 24.6469 14.4265C24.6609 14.9849 24.4273 15.5948 24.8643 16.1042C25.161 16.9921 25.5817 16.3706 25.8925 16.1509C27.6614 14.8868 29.4117 13.5946 31.169 12.3141C31.3559 12.1762 31.5382 12.0267 31.7345 11.9051C32.0336 11.7205 32.3794 11.4845 32.6692 11.8607C32.959 12.237 32.6692 12.515 32.3864 12.7393C31.7353 13.2301 31.081 13.7169 30.4235 14.1998C28.8275 15.3681 27.2408 16.5599 25.6284 17.7048C25.3964 17.8435 25.2061 18.0422 25.0774 18.2798C24.9487 18.5175 24.8864 18.7854 24.897 19.0555C24.9172 21.9327 24.9172 24.81 24.897 27.6872C24.897 28.7224 25.2194 28.7855 26.0467 28.2971C28.8197 26.6599 31.613 25.053 34.4265 23.4765C34.756 23.3165 35.0359 23.07 35.2363 22.7635C35.4367 22.4569 35.5501 22.1016 35.5645 21.7356C35.7772 19.4153 36.0529 17.0996 36.3076 14.7816C36.3403 14.4732 36.3824 14.1647 36.4455 13.861C36.5156 13.5175 36.588 13.0992 37.0601 13.174C37.5321 13.2488 37.5041 13.6623 37.469 14.0129C37.2821 15.8682 37.0834 17.7235 36.8848 19.5765C36.803 20.3336 36.3544 21.3688 36.8988 21.7707C37.4433 22.1726 38.1514 21.252 38.787 20.9201C39.9227 20.329 41.0023 19.6326 42.1146 18.9994C42.5692 18.7095 43.0692 18.4978 43.5938 18.3731C43.8672 18.3217 44.1523 18.1769 44.2948 18.4689C44.4374 18.761 44.0612 18.9106 43.9023 19.0928C43.6875 19.31 43.4369 19.4887 43.1615 19.6209C41.5102 20.5556 39.8549 21.4903 38.1958 22.425C37.9831 22.425 37.7915 22.453 37.7284 22.696L37.7448 22.6843C37.6188 22.6488 37.4842 22.6608 37.3665 22.7181C37.2489 22.7754 37.1564 22.874 37.1068 22.9951C37.018 23.2288 37.2143 23.3083 37.3942 23.3667L37.7097 23.5676L38.0766 23.7779H38.1607C38.2041 23.8715 38.2795 23.9465 38.3734 23.9894C38.4672 24.0323 38.5733 24.0401 38.6725 24.0116L38.6561 23.9976C38.7589 24.2593 38.9739 24.2686 39.2053 24.2429C39.2293 24.2333 39.2558 24.2321 39.2805 24.2398C39.3052 24.2475 39.3265 24.2634 39.3408 24.285L39.703 24.4766H39.7965C39.846 24.571 39.9263 24.6456 40.024 24.6881C40.1218 24.7306 40.2311 24.7385 40.334 24.7103C40.3647 24.703 40.3969 24.7034 40.4275 24.7116C40.4581 24.7197 40.4861 24.7353 40.5092 24.757L40.841 24.9369C40.8643 24.9271 40.8903 24.9259 40.9143 24.9336C40.9383 24.9413 40.9588 24.9574 40.9719 24.979L41.3271 25.1683L41.6683 25.2711C41.8248 26.0609 42.4231 25.888 42.9535 25.8646C42.9629 25.8581 42.9736 25.8538 42.9848 25.852C42.996 25.8501 43.0075 25.8508 43.0185 25.8539C43.0294 25.8571 43.0396 25.8626 43.0481 25.8701C43.0567 25.8776 43.0635 25.8869 43.068 25.8973L43.4372 26.1029H43.5307C43.5755 26.1909 43.6482 26.2616 43.7374 26.3039C43.8266 26.3462 43.9273 26.3577 44.0238 26.3366H44.0098C44.1173 26.5703 44.3159 26.589 44.5309 26.5703C44.5624 26.5649 44.5948 26.5668 44.6255 26.5757C44.6563 26.5846 44.6846 26.6003 44.7085 26.6217L44.9795 26.797V26.7806C44.9048 27.304 44.4982 27.304 44.1102 27.3344C44.0013 27.3478 43.8907 27.3349 43.7878 27.2967C43.6849 27.2585 43.5928 27.1961 43.519 27.1147C43.3531 26.5726 42.9348 26.5726 42.4885 26.631L42.4254 26.6474L42.3717 26.6053C42.3259 26.5182 42.2522 26.4489 42.1623 26.4087C42.0725 26.3684 41.9718 26.3595 41.8763 26.3834H41.8926C41.7851 26.1497 41.5818 26.124 41.3575 26.1497C41.329 26.157 41.2991 26.1563 41.2711 26.1476C41.243 26.1389 41.2179 26.1227 41.1986 26.1006L40.9252 25.9207L40.9462 25.9417C40.8691 25.687 40.6821 25.659 40.4601 25.708H40.4742C40.2171 25.2243 39.7731 25.1659 39.3058 25.2127L39.3221 25.2243C39.2403 24.9907 39.0557 24.9509 38.8361 24.9907L38.8571 25.0024C38.7449 24.729 38.5183 24.7336 38.2822 24.7687L38.2262 24.7897L38.1818 24.75L37.8032 24.5303H37.7167C37.6749 24.4354 37.5997 24.3592 37.5053 24.3161C37.411 24.273 37.3041 24.2661 37.205 24.2967L37.219 24.3107C37.1419 24.0607 36.9549 24.0303 36.7353 24.077V24.091C36.6675 23.82 36.5273 23.7779 36.317 23.9579L35.5926 23.9766C35.4781 23.8667 35.415 23.9228 35.3706 24.0443C31.9121 26.0819 28.4559 28.1071 25.0021 30.1197C24.3922 30.4773 23.8734 30.2015 23.3664 29.9071C20.2374 28.1008 17.0967 26.3133 13.9981 24.4556C13.6502 24.2154 13.2425 24.0767 12.8204 24.0548C12.3982 24.033 11.9783 24.1288 11.6075 24.3317C9.39456 25.3716 7.14186 26.3296 4.89852 27.304C4.49425 27.4793 3.94278 27.8765 3.66703 27.304C3.33754 26.631 4.05261 26.5002 4.48492 26.3086C6.54131 25.3926 8.60938 24.4953 10.6681 23.5863C10.9018 23.4812 11.2523 23.4485 11.2687 23.119C11.285 22.7895 10.9415 22.7171 10.7195 22.5886C8.9716 21.5744 7.21432 20.5743 5.46638 19.5649C5.19425 19.4159 4.93338 19.2472 4.68588 19.0601C4.58257 19.0027 4.50375 18.9095 4.46418 18.7981C4.42461 18.6867 4.42699 18.5647 4.4709 18.4549C4.61578 18.1441 4.90321 18.1278 5.17194 18.2213C5.46224 18.3301 5.74157 18.4663 6.00618 18.6278C7.79151 19.656 9.57372 20.6872 11.3528 21.7216C11.5865 21.8548 11.8202 22.0885 12.0936 21.8945C12.367 21.7006 12.2385 21.3922 12.2081 21.1305C11.944 18.8522 11.6589 16.5762 11.4089 14.2956C11.3622 13.868 11.1448 13.2207 11.7804 13.1272C12.5235 13.0104 12.4488 13.7208 12.5049 14.1904C12.811 16.8146 13.1148 19.4387 13.3812 22.0675C13.3951 22.3565 13.486 22.6365 13.6446 22.8785C13.8032 23.1205 14.0237 23.3157 14.2832 23.4438C17.1543 25.0717 20.0169 26.7183 22.871 28.3836C23.6865 28.8509 23.9202 28.6967 23.9085 27.762C23.8734 24.8435 23.8921 21.9202 23.9085 19.0064C23.9021 18.6202 23.8146 18.2396 23.6514 17.8894C23.7099 17.3263 23.3757 17.2725 22.9504 17.3403H22.9761C22.9107 17.1043 22.7261 17.0646 22.5204 17.0529Z" fill="#C49E4A"/>
<path d="M110.113 11.7227C113.385 11.7227 116.643 11.7227 119.907 11.7227C120.342 11.7227 121.008 11.5451 121.015 12.2134C121.015 12.8396 120.388 12.9354 119.867 12.9307C117.652 12.9307 115.427 12.8817 113.224 12.8677C111.457 12.8677 110.859 13.4542 110.815 15.2277C110.786 16.2792 110.843 17.3308 110.702 18.3753C110.529 19.6464 111.121 20.1512 112.231 20.5274C115.035 21.462 117.785 22.5252 120.557 23.5347C120.814 23.6236 121.067 23.7258 121.314 23.8408C121.387 23.8687 121.455 23.9113 121.511 23.966C121.568 24.0206 121.613 24.0862 121.643 24.1587C121.674 24.2312 121.69 24.3092 121.689 24.3879C121.689 24.4666 121.672 24.5444 121.641 24.6166C121.496 24.9951 121.185 24.9788 120.863 24.8643C119.507 24.3806 118.152 23.9039 116.801 23.4155C115.166 22.822 113.511 22.2472 111.882 21.6069C111.023 21.2704 110.686 21.4317 110.714 22.4154C110.756 24.3969 110.714 26.3878 110.714 28.367C110.702 29.4699 110.345 30.428 109.396 31.0846C109.137 31.2645 108.84 31.4701 108.553 31.2201C108.265 30.9701 108.553 30.7247 108.676 30.5051C109.178 29.5788 109.421 28.5341 109.377 27.4814C109.348 25.612 109.366 23.7427 109.431 21.8733C109.464 21.0017 109.218 20.4713 108.321 20.275C108.029 20.2119 107.503 20.1675 107.599 19.7048C107.662 19.3987 108.113 19.3754 108.417 19.4198C109.417 19.5576 109.653 19.0249 109.546 18.1813C109.448 17.4312 109.922 16.2816 109.312 16.0316C108.702 15.7815 108.174 16.8798 107.648 17.4149C105.622 19.4829 103.636 21.5742 101.65 23.6515C100.804 24.5371 99.8128 25.0769 98.5463 24.9718C98.3126 24.9507 98.0369 24.9554 97.9527 24.696C97.8686 24.4367 98.114 24.2965 98.3336 24.2287C100.065 23.6375 101.227 22.3196 102.435 21.0484C104.685 18.6814 106.959 16.3377 109.211 13.9659C109.457 13.7065 109.934 13.4588 109.737 13.0312C109.567 12.6597 109.104 12.8583 108.779 12.8536C106.174 12.8256 103.57 12.8186 100.967 12.8046C100.695 12.8152 100.423 12.8081 100.152 12.7835C99.7568 12.7321 99.3198 12.6223 99.3268 12.1316C99.3268 11.5287 99.8642 11.6853 100.215 11.6853C103.519 11.6713 106.821 11.6853 110.125 11.6853L110.113 11.7227Z" fill="#C69F4A"/>
<path d="M22.2728 42.3642C22.2728 44.271 22.2728 46.1777 22.2728 48.0845C22.2728 50.0333 22.0812 50.2132 20.2047 49.8464C12.991 48.4443 7.41068 44.6332 3.51988 38.3965C1.33496 34.8915 0.274052 31.0195 0.0146658 26.9186C-0.013376 26.463 -0.0647847 25.8438 0.570828 25.8438C1.14335 25.8438 1.05922 26.449 1.08492 26.8555C1.46582 32.8445 3.71383 38.0086 7.93879 42.2778C11.232 45.6222 15.4773 47.8687 20.0949 48.7107C20.9712 48.8813 21.1955 48.5939 21.1909 47.776C21.1722 44.1557 21.1722 40.5377 21.1909 36.9221C21.1909 36.0832 20.8707 35.7911 20.0482 35.6859C15.6549 35.1228 11.444 33.9731 7.68409 31.5173C7.30034 31.2541 6.93851 30.9602 6.60214 30.6387C6.55724 30.6002 6.52047 30.5532 6.49399 30.5003C6.46751 30.4475 6.45185 30.3899 6.44793 30.3309C6.44401 30.2719 6.45192 30.2127 6.47118 30.1568C6.49044 30.1009 6.52066 30.0495 6.56008 30.0054C6.63251 29.9113 6.73804 29.8484 6.85522 29.8293C6.9724 29.8102 7.09247 29.8364 7.19102 29.9026C7.32925 29.9702 7.46205 30.0483 7.58827 30.1363C11.4253 32.8889 15.7975 34.1087 20.4127 34.6344C22.2448 34.8447 22.2518 34.8354 22.2588 36.637C22.2798 38.5507 22.2751 40.4598 22.2728 42.3642Z" fill="#C6A152"/>
<path d="M145.647 24.6281C145.647 25.8736 145.689 27.119 145.647 28.3668C145.605 29.6146 145.166 30.7292 143.934 31.3345C143.736 31.4326 143.481 31.6078 143.322 31.3345C143.299 31.2451 143.296 31.152 143.311 31.0611C143.326 30.9702 143.36 30.8834 143.411 30.8064C145.047 28.0023 144.042 24.9366 144.313 21.9993C144.328 21.9313 144.327 21.8606 144.31 21.793C144.293 21.7254 144.26 21.6627 144.215 21.6097C144.17 21.5567 144.113 21.515 144.049 21.4877C143.985 21.4604 143.915 21.4484 143.845 21.4525C142.955 21.4339 142.06 21.4175 141.17 21.4409C140.621 21.4572 140.544 21.9526 140.399 22.3452C139.582 24.5697 138.769 26.7966 137.959 29.0258C137.557 30.1334 136.91 31.0143 135.772 31.4513C135.489 31.5588 135.157 31.7551 134.914 31.4513C134.627 31.0868 134.998 30.9115 135.22 30.7129C136.019 29.967 136.616 29.0314 136.957 27.993C137.616 26.1236 138.286 24.2542 138.994 22.4082C139.296 21.6161 139.078 21.3941 138.261 21.3684C135.005 21.2656 135.015 21.2469 133.933 24.2472C133.444 25.6002 132.921 26.9368 132.414 28.2827C132.024 29.3249 131.159 29.7969 130.182 30.117C130.075 30.1636 129.954 30.1698 129.843 30.1346C129.731 30.0994 129.636 30.0252 129.575 29.9254C129.469 29.7151 129.689 29.5749 129.829 29.4581C132.089 27.4859 132.166 24.4902 133.334 21.997C133.552 21.5296 133.311 21.2656 132.788 21.2679C131.661 21.2679 130.535 21.282 129.409 21.2679C128.806 21.2679 128.628 21.6628 128.474 22.1208C128.093 23.1794 127.7 24.2239 127.306 25.2941C127.116 25.8175 126.77 26.2732 126.203 26.0722C125.539 25.8385 125.945 25.2894 126.088 24.8875C126.67 23.2378 127.256 21.5927 127.878 19.9594C128.261 18.9523 128.579 18.8775 129.17 19.693C129.488 20.13 129.853 20.1463 130.273 20.1463C134.662 20.1635 139.05 20.1759 143.439 20.1837C143.595 20.1897 143.751 20.1827 143.906 20.1627C145.675 19.8683 145.675 19.8659 145.68 21.7259C145.68 22.698 145.68 23.6701 145.68 24.6421L145.647 24.6281Z" fill="#C7A04B"/>
<path d="M26.5491 42.3151C26.5491 40.2916 26.5841 38.2656 26.5491 36.2397C26.5234 35.2326 26.8599 34.7839 27.9138 34.6928C32.0219 34.3376 35.9477 33.3118 39.5511 31.2392C40.1563 30.891 40.7195 30.4821 41.3201 30.1105C41.6169 29.9259 41.9767 29.6853 42.2548 30.0381C42.589 30.4564 42.2548 30.7391 41.923 30.9915C40.3082 32.2416 38.4809 33.0945 36.5904 33.8259C34.0795 34.7749 31.4572 35.3977 28.7878 35.6789C27.9675 35.7724 27.6474 36.0902 27.6544 36.9314C27.6824 40.5517 27.6824 44.1713 27.6544 47.79C27.6544 48.6125 27.8881 48.8836 28.7504 48.7364C38.2308 47.1474 46.3512 38.7026 47.522 29.1735C47.6154 28.4024 47.6692 27.6266 47.7557 26.8532C47.8071 26.4186 47.6972 25.7573 48.3749 25.8297C49.0012 25.8975 48.8656 26.5307 48.8423 26.9794C48.7377 29.8653 48.0825 32.7047 46.9121 35.3448C43.2129 43.4368 36.9643 48.2854 28.2176 49.9048C26.8295 50.1641 26.5654 49.9421 26.5538 48.5027C26.5374 46.4394 26.5491 44.3761 26.5491 42.3151Z" fill="#C6A150"/>
<path d="M129.147 14.4828C129.147 13.4336 129.161 12.3798 129.147 11.3329C129.135 10.7371 129.458 10.2954 129.967 10.5735C131.603 11.4708 133.384 11.0408 135.087 11.153C137.37 11.2909 139.67 11.1904 141.96 11.1974C142.467 11.1974 142.925 11.1857 143.362 10.8095C143.925 10.3281 144.437 10.4987 144.451 11.2768C144.49 13.492 144.479 15.7166 144.451 17.9271C144.451 18.5673 143.983 19.0183 143.516 18.4692C142.918 17.7845 142.221 17.8103 141.518 17.8032C138.218 17.7729 134.916 17.7916 131.617 17.7892C131.068 17.7892 130.53 17.7542 130.18 18.3267C130.111 18.4479 129.999 18.539 129.866 18.5822C129.734 18.6254 129.59 18.6176 129.462 18.5603C129.163 18.4365 129.14 18.1537 129.14 17.871V14.4828H129.147ZM136.828 12.1905V12.1741C135.003 12.1741 133.178 12.2068 131.355 12.1601C130.479 12.1367 130.29 12.5503 130.341 13.3004C130.392 14.0505 130.907 14.0178 131.423 14.0201C134.374 14.0404 137.324 14.0614 140.275 14.0832C140.812 14.0832 141.621 14.0552 141.609 14.6744C141.609 15.3754 140.81 14.9945 140.378 14.9992C137.389 15.0249 134.4 14.9992 131.409 14.9992C130.82 14.9992 130.339 15.0296 130.306 15.8287C130.273 16.6279 130.773 16.7237 131.343 16.7284C135.031 16.7681 138.718 16.7914 142.406 16.8312C143.056 16.8312 143.387 16.5391 143.285 15.9152C143.162 15.0706 143.162 14.2127 143.285 13.3682C143.392 12.5223 143.051 12.1624 142.172 12.1788C140.399 12.2115 138.613 12.1858 136.828 12.1858V12.1905Z" fill="#C59C46"/>
<path d="M76.9238 22.4788C77.896 22.4788 78.8704 22.4274 79.8378 22.4929C80.6861 22.5513 80.9455 22.2031 80.8684 21.4156C80.845 20.9883 80.845 20.5601 80.8684 20.1328C80.8684 19.7309 80.8824 19.2916 81.4339 19.3009C81.9012 19.3009 82.1162 19.6584 82.163 20.0767C82.219 20.5013 82.2284 20.9306 82.191 21.3572C82.0999 22.2101 82.399 22.5256 83.2893 22.4999C85.1915 22.4391 87.0983 22.4695 89.0028 22.4999C89.4702 22.4999 90.1712 22.3199 90.1362 23.0981C90.1035 23.757 89.4515 23.7407 88.9491 23.743C87.0446 23.743 85.1401 23.7734 83.2379 23.7266C82.434 23.7079 82.1256 23.9603 82.163 24.7922C82.2191 25.9605 82.198 27.1289 82.163 28.2972C82.1116 29.5707 81.6722 30.6596 80.4384 31.2578C80.2421 31.3513 80.0061 31.5359 79.8005 31.3303C79.5948 31.1246 79.7864 30.8886 79.908 30.711C81.282 28.7062 80.7165 26.4185 80.8427 24.2384C80.8824 23.5561 80.2608 23.6262 79.8098 23.6215C77.9403 23.6028 76.0709 23.6075 74.2014 23.5911C73.892 23.6007 73.5827 23.5661 73.2831 23.4883C73.1465 23.461 73.0242 23.3857 72.9384 23.2759C72.8526 23.1661 72.8091 23.0292 72.8157 22.8901C72.8484 22.5373 73.1476 22.4905 73.4233 22.4882C74.5917 22.4882 75.7601 22.4882 76.9285 22.4882L76.9238 22.4788Z" fill="#C8A04F"/>
<path d="M90.9914 21.8293C88.2715 21.4301 85.7032 20.3265 83.5417 18.628C82.8757 18.1046 82.2845 17.2493 81.5507 17.1044C80.7165 16.9409 80.2444 18.0391 79.5831 18.5509C77.6767 20.029 75.4709 21.0736 73.1195 21.6119C72.7072 21.7224 72.2821 21.7782 71.8553 21.7778C71.3879 21.7615 70.577 21.9461 70.5046 21.4531C70.4064 20.7871 71.25 20.9857 71.6613 20.8782C74.6174 20.0721 77.3678 18.878 79.6836 16.8217C80.193 16.3707 80.8146 15.9828 80.9198 15.186C80.9305 15.118 80.9547 15.0528 80.991 14.9942C81.0273 14.9357 81.0749 14.885 81.1311 14.8452C81.1873 14.8053 81.2509 14.7772 81.3181 14.7622C81.3854 14.7473 81.4549 14.746 81.5227 14.7584C81.6603 14.7518 81.7955 14.7956 81.9031 14.8817C82.0107 14.9677 82.0831 15.0901 82.1069 15.2257C82.3709 16.3544 83.3173 16.9082 84.1422 17.518C86.3079 19.1058 88.7718 20.24 91.3864 20.8525C91.7859 20.9483 92.3888 20.8081 92.529 21.4157C92.5758 21.6493 92.0266 21.8199 90.9914 21.8293Z" fill="#C59F4C"/>
<path d="M125.179 40.9693C124.945 42.4975 125.097 43.8037 125.027 45.0983C125.006 45.5072 125.123 46.1194 124.56 46.1311C123.957 46.1451 124.092 45.5259 124.092 45.1263C124.08 43.4127 124.08 41.6992 124.092 39.9856C124.092 39.5813 123.959 39.0813 124.56 38.9527C125.16 38.8242 125.494 39.1046 125.728 39.6537C126.378 41.2287 127.051 42.7943 127.759 44.4603C128.488 43.792 128.616 42.9602 128.962 42.2568C129.357 41.4577 129.689 40.6211 130.042 39.8056C130.25 39.3196 130.486 38.8476 131.124 38.9668C131.762 39.0859 131.619 39.6678 131.624 40.1024C131.643 41.7381 131.647 43.3738 131.624 45.0095C131.624 45.4254 131.816 46.1358 131.157 46.1101C130.498 46.0844 130.773 45.374 130.759 44.9651C130.722 43.6589 130.745 42.3503 130.745 41.0417L130.453 40.9459C129.986 42.0091 129.551 43.091 129.025 44.1239C128.67 44.8249 128.614 46.047 127.81 46.0423C127.135 46.0423 127.081 44.8085 126.726 44.1379C126.224 43.1635 125.952 42.0559 125.179 40.9693Z" fill="#C5A052"/>
<path d="M108.968 45.3507C108.139 45.7269 107.417 46.3695 106.426 46.3414C105.4 46.3111 104.456 46.0867 104.026 45.0399C103.596 43.993 103.905 43.1121 104.802 42.4695C105.321 42.1027 105.225 41.8059 104.954 41.3292C104.463 40.467 104.615 39.6701 105.496 39.1187C106.377 38.5672 107.627 38.7425 108.111 39.5229C108.651 40.3992 108.447 41.2124 107.608 41.7381C107.104 42.0512 107.267 42.2055 107.55 42.4952C107.924 42.8714 108.515 43.0397 108.651 43.6425C108.555 43.695 108.477 43.7733 108.424 43.8683C108.371 43.9633 108.346 44.0714 108.352 44.18C107.922 43.7524 107.615 43.2243 107.055 42.8901C106.494 42.556 106.026 42.3036 105.475 42.7476C104.923 43.1916 104.582 43.8155 104.804 44.5866C105.008 45.2876 105.531 45.5212 106.206 45.5703C106.593 45.6008 106.981 45.5509 107.347 45.4239C107.713 45.2968 108.049 45.0952 108.333 44.8319L108.968 45.3507ZM106.487 41.6119C107.104 41.4601 107.618 41.1283 107.62 40.4109C107.62 39.7543 107.134 39.4762 106.534 39.4949C105.933 39.5136 105.515 39.8594 105.531 40.5067C105.547 41.0909 105.762 41.5652 106.487 41.6213V41.6119Z" fill="#C2A259"/>
<path d="M88.893 14.0296C88.4256 14.0296 87.9582 14.0507 87.4909 14.0296C86.5561 13.9806 85.6378 13.9315 85.9065 15.3499C85.9278 15.4159 85.9335 15.4859 85.9233 15.5545C85.9131 15.6231 85.8873 15.6885 85.8477 15.7454C85.8081 15.8024 85.7559 15.8495 85.6952 15.883C85.6345 15.9165 85.5669 15.9356 85.4976 15.9387C85.2999 15.9668 85.0992 15.9154 84.9394 15.7959C84.7795 15.6763 84.6735 15.4983 84.6446 15.3008C84.4978 13.9141 84.5017 12.5156 84.6563 11.1298C84.6674 11.0416 84.6966 10.9566 84.742 10.8802C84.7874 10.8038 84.8481 10.7375 84.9202 10.6856C84.9923 10.6336 85.0744 10.5971 85.1613 10.5782C85.2481 10.5593 85.338 10.5586 85.4251 10.576C85.8084 10.618 85.8691 10.9382 85.9229 11.2583C86.1916 12.894 86.1963 12.894 87.8741 12.894C89.0737 12.894 90.2732 12.9072 91.4728 12.9337C91.842 12.9337 92.3561 12.8706 92.3117 13.4478C92.2743 13.8964 91.8607 14.0366 91.4377 14.0366H88.893V14.0296Z" fill="#C6A04D"/>
<path d="M73.9421 12.8306H75.3441C76.9425 12.8306 76.9495 12.8306 77.1295 11.2346C77.1645 10.9122 77.1785 10.5967 77.5968 10.5336C78.0151 10.4705 78.3259 10.6785 78.3773 11.0641C78.5585 12.4847 78.5443 13.9234 78.3353 15.3402C78.2792 15.7304 77.9544 15.915 77.5524 15.866C77.1505 15.8169 77.1061 15.4524 77.1458 15.165C77.2954 14.1041 76.7392 13.9546 75.8489 13.9966C74.4959 14.0504 73.1382 13.9966 71.7828 13.9803C71.3155 13.9803 70.7406 13.9172 70.7546 13.3073C70.7687 12.6974 71.3646 12.861 71.7525 12.8399C72.4886 12.8142 73.2247 12.8399 73.9608 12.8399L73.9421 12.8306Z" fill="#C69F4D"/>
<path d="M145.266 43.0042C145.785 42.4364 146.294 41.8569 146.83 41.3054C147.11 41.0133 147.531 40.7469 147.839 41.0951C148.073 41.3592 147.673 41.6302 147.486 41.8522C146.07 43.5416 146.072 43.537 147.598 45.3175C147.776 45.5232 148.213 45.7265 147.876 46.0629C147.582 46.3574 147.215 46.1985 146.942 45.9181C146.519 45.4624 146.117 44.9834 145.694 44.5324C145.544 44.3712 145.404 44.1141 145.135 44.2099C144.867 44.3057 144.974 44.6072 144.951 44.8198C144.927 45.0324 144.951 45.2077 144.951 45.4016C144.951 45.7498 144.998 46.1681 144.483 46.1494C144.049 46.1354 144.06 45.7662 144.058 45.4484C144.058 43.3874 144.058 41.3264 144.058 39.2655C144.058 38.95 144.058 38.5808 144.49 38.5645C145.012 38.5645 144.958 38.9897 144.958 39.3286C144.958 40.5156 144.958 41.705 144.958 42.892L145.266 43.0042Z" fill="#C4A35A"/>
<path d="M89.9212 44.0816C89.9212 44.4321 89.9212 44.7826 89.9212 45.1284C89.9212 45.7523 89.9703 46.4416 88.9865 45.8598C88.6804 45.6775 88.4467 45.8761 88.1593 46.035C87.2479 46.5374 86.145 46.1542 85.8225 45.292C85.4719 44.3573 85.951 43.4834 87.0166 43.1539C87.3524 43.0624 87.6957 43.0014 88.0424 42.9716C88.4374 42.9272 88.8673 42.9109 88.8486 42.3688C88.8299 41.8266 88.4654 41.649 87.9934 41.5976C87.6062 41.5764 87.2195 41.6468 86.8647 41.8033C86.6637 41.8757 86.3973 42.0369 86.2758 41.7238C86.166 41.4645 86.3506 41.2705 86.5539 41.156C87.3134 40.7307 88.1406 40.7634 88.9211 40.9854C89.6572 41.1934 89.8114 41.9201 89.8815 42.5744C89.9123 43.0762 89.9162 43.5793 89.8932 44.0816H89.9212ZM88.1897 43.5254C87.6709 43.7871 86.6824 43.5254 86.6614 44.6283C86.6474 45.3434 87.1101 45.6098 87.7223 45.5373C88.5005 45.4462 88.9702 44.9788 89.0146 44.1516C89.0449 43.6165 88.7388 43.4857 88.1897 43.5254Z" fill="#C4A35A"/>
<path d="M78.4872 43.5958C78.4872 42.2405 78.9873 41.3105 80.0342 41.0254C80.9876 40.7614 81.8522 41.0815 82.5252 41.7965C82.7325 42.008 82.8767 42.2732 82.9415 42.5621C83.0063 42.8511 82.9892 43.1524 82.8921 43.4322C82.6888 44.0117 82.0952 43.7547 81.6629 43.7921C81.1605 43.8365 80.6557 43.8131 80.151 43.8201C79.2443 43.8201 79.2887 44.3015 79.6836 44.8623C80.179 45.5633 80.8754 45.6287 81.6606 45.4348C81.8943 45.374 82.2962 45.0422 82.4341 45.4955C82.5719 45.9488 82.1139 46.047 81.7914 46.1498C79.9687 46.7293 78.4942 45.5867 78.4872 43.5958ZM80.6815 43.1915C81.1488 42.9579 81.9994 43.5444 82.0251 42.5863C82.0462 41.862 81.4853 41.5652 80.7656 41.5745C80.0458 41.5839 79.5037 41.9835 79.478 42.6261C79.4499 43.528 80.2795 42.9555 80.6815 43.1915Z" fill="#C3A155"/>
<path d="M73.9771 42.8293C73.9771 42.3246 73.9467 41.8175 73.9771 41.3151C74.0565 40.2776 74.0028 39.399 72.575 39.642C72.3553 39.6794 72.0632 39.614 72.0422 39.3219C72.0188 38.9597 72.3203 38.8826 72.6007 38.8802C73.847 38.8693 75.0894 38.8693 76.3279 38.8802C76.5943 38.8802 76.9261 38.8803 76.9378 39.2565C76.9495 39.6327 76.613 39.7098 76.3559 39.6631C74.844 39.3826 74.8557 40.3243 74.8907 41.3852C74.9328 42.7054 74.9071 44.028 74.8907 45.3576C74.8907 45.6544 74.9165 46.0586 74.4818 46.0726C74.0472 46.0866 74.0144 45.7081 74.0144 45.4067C73.9934 44.5514 74.0144 43.6962 74.0144 42.8363L73.9771 42.8293Z" fill="#BF9E4B"/>
<path d="M89.8932 31.2809C88.414 31.1967 87.519 30.4186 87.3016 29.0306C87.1568 28.117 87.2129 27.1613 87.1965 26.2429C87.1848 26.1345 87.1968 26.0249 87.2318 25.9216C87.2667 25.8183 87.3238 25.7239 87.399 25.645C87.4742 25.566 87.5657 25.5044 87.6671 25.4644C87.7685 25.4244 87.8775 25.407 87.9863 25.4134C88.5799 25.4134 88.4958 25.9041 88.4771 26.2733C88.3836 28.0539 88.664 29.741 89.8932 31.2809Z" fill="#C6A152"/>
<path d="M75.856 27.3581C75.856 28.7929 75.7135 30.1622 74.3581 31.0361C74.1011 31.2044 73.7832 31.445 73.5145 31.2184C73.1757 30.9333 73.5472 30.6623 73.6991 30.4333C74.4796 29.2789 74.538 27.9797 74.5474 26.6501C74.5474 26.2132 74.2366 25.4818 74.996 25.4234C75.7555 25.3649 75.8326 26.0613 75.856 26.6618C75.863 26.8931 75.856 27.1268 75.856 27.3581Z" fill="#C69F4A"/>
<path d="M140.562 42.4534C140.562 43.4651 140.562 44.4769 140.562 45.4911C140.562 45.7948 140.588 46.1734 140.132 46.164C139.719 46.164 139.665 45.8089 139.665 45.4911C139.656 43.3896 139.656 41.2866 139.665 39.182C139.665 38.8478 139.768 38.537 140.186 38.5698C140.546 38.5978 140.574 38.9039 140.576 39.182C140.576 40.2709 140.576 41.3598 140.576 42.4534H140.562Z" fill="#C7A254"/>
<path d="M108.352 44.1864C108.346 44.0778 108.371 43.9698 108.424 43.8747C108.477 43.7797 108.556 43.7015 108.651 43.649C109.819 43.5649 109.586 42.5507 109.836 41.8521C109.987 41.4291 109.576 40.5552 110.282 40.644C111.055 40.7421 110.681 41.602 110.595 42.1138C110.475 42.6818 110.281 43.2317 110.018 43.7495C109.515 44.8547 109.609 45.1001 110.796 45.4996C111.03 45.5814 111.411 45.516 111.357 45.9202C111.303 46.3245 110.925 46.3035 110.623 46.3175C109.873 46.3479 109.455 45.7894 108.969 45.3524L108.338 44.8384L108.352 44.1864Z" fill="#C2A255"/>
<path d="M21.4105 15.1299C21.0786 15.2 20.7842 15.3215 20.651 15.672C19.2092 14.8472 17.9473 13.7629 16.6083 12.7908C16.3045 12.5572 15.9073 12.2861 16.2718 11.8562C16.5569 11.5057 16.9051 11.7019 17.2066 11.9146C18.6203 12.9544 20.1369 13.8844 21.4105 15.1299Z" fill="#C5A052"/>
<path d="M24.8574 16.1178C24.4204 15.6084 24.6541 14.9985 24.6401 14.44C24.5957 12.6945 24.605 10.949 24.5863 9.20348C24.5863 9.14974 24.4975 9.09599 24.4391 9.02823C24.0021 9.15675 24.168 9.52828 24.1657 9.79C24.1493 11.615 24.1657 13.4376 24.1517 15.2626C24.1517 15.6341 24.2849 16.05 23.918 16.3468C23.918 13.9797 23.8946 11.6126 23.9016 9.24554C23.9016 8.85297 23.7474 8.25478 24.3526 8.21973C25.0537 8.17767 24.9415 8.8226 24.9392 9.25255C24.9275 11.5449 24.8878 13.8325 24.8574 16.1178Z" fill="#C5A052"/>
<path d="M136.136 43.6447C136.136 44.3037 136.136 44.9603 136.136 45.6192C136.136 45.916 136.036 46.166 135.683 46.1683C135.33 46.1707 135.234 45.9136 135.234 45.6192C135.234 44.3037 135.234 42.9881 135.234 41.6725C135.234 41.3547 135.326 41.0066 135.716 40.9926C136.183 40.9785 136.125 41.3734 136.129 41.6702C136.146 42.3291 136.136 42.9904 136.136 43.6447Z" fill="#C5A661"/>
<path d="M46.9682 13.2275C46.4167 13.6224 45.919 14.1622 45.3114 14.3608C44.844 14.515 44.6337 13.8046 44.6244 13.4705C44.608 12.6526 45.4306 12.4914 45.9797 12.3021C46.5289 12.1129 46.6644 12.7648 46.9682 13.2275ZM45.3768 13.7813C45.5451 13.7602 45.6105 13.6925 45.5708 13.5663C45.5521 13.5055 45.4703 13.4097 45.454 13.4167C45.3722 13.4495 45.2483 13.5102 45.246 13.564C45.2436 13.6177 45.3324 13.7088 45.3768 13.7813Z" fill="#CABA8F"/>
<path d="M3.51996 14.4007C2.98483 13.8422 1.61311 14.0875 2.06879 12.9496C2.71609 11.3326 3.49426 12.8818 4.29812 12.9799C4.08781 13.487 2.8563 13.3632 3.51996 14.4007Z" fill="#C6B481"/>
<path d="M8.08368 6.80163C8.55104 6.84602 9.01841 6.89042 9.15862 7.46058C9.23574 7.80875 8.99036 8.03774 8.74032 8.21767C7.74718 8.91868 7.73549 7.56339 7.10455 7.37411C6.71197 7.25728 7.10456 6.64039 7.48079 6.41607C7.85702 6.19175 8.06967 6.31793 8.05097 6.77125C8.0019 6.81564 7.81729 6.79461 7.97152 6.93715L8.08368 6.80163ZM8.41084 7.55638L8.3641 7.62181H8.44122L8.41084 7.55638Z" fill="#D2BF99"/>
<path d="M19.2208 2.5493C18.9543 2.17081 18.8144 1.71765 18.8212 1.25477C18.8002 0.876228 18.9217 0.81781 19.3564 0.787433C20.1672 0.738362 20.7725 0.635543 20.7398 1.77585C20.7211 2.41611 20.6136 2.45116 20.1065 2.15674C19.6555 1.8997 19.6274 1.93475 19.2208 2.5493ZM20.0504 1.32253L20.0995 1.25243L20.0294 1.23841L20.0504 1.32253Z" fill="#CAB584"/>
<path d="M27.776 1.53038C27.5423 1.75003 27.5821 2.18933 27.1918 2.20335C27.1053 2.20335 26.9932 2.0024 26.9277 1.87388C26.7385 1.50001 27.1124 1.38083 27.2385 1.13548C27.7994 0.0372293 28.3462 0.885452 28.8252 1.13548C29.1267 1.29671 28.9514 1.69862 28.8252 1.97202C28.7434 2.13558 28.5916 2.39496 28.4794 2.39496C27.9326 2.39963 28.2036 1.73835 27.776 1.53038Z" fill="#CAB584"/>
<path d="M37.4738 4.26404C37.1373 4.06776 37.0065 4.00233 36.892 3.92289C36.5648 3.68922 36.24 3.59341 36.0507 4.06309C35.9035 4.42995 36.0764 4.64727 36.4643 4.71269C36.6816 4.75008 36.9994 4.77111 36.8873 5.09825C36.7751 5.42539 36.455 5.39267 36.1862 5.29687C35.7189 5.13096 35.3286 4.88094 35.366 4.31078C35.3668 4.03456 35.462 3.7669 35.6358 3.55225C35.8097 3.3376 36.0517 3.18887 36.3218 3.13075C36.9504 2.99522 37.3149 3.36441 37.4738 4.26404Z" fill="#C7BA94"/>
<path d="M16.3233 2.90201C16.0452 2.73844 15.6456 2.81789 15.4283 2.50711C15.3708 2.44057 15.3291 2.36185 15.3064 2.27688C15.2836 2.19191 15.2805 2.10289 15.2971 2.01653C15.3138 1.93016 15.3498 1.8487 15.4024 1.77825C15.4551 1.70781 15.5231 1.65022 15.6012 1.60982C15.9026 1.40652 16.3466 1.27567 16.4518 1.72665C16.5315 2.04162 16.7193 2.31864 16.9822 2.50945C17.3024 2.79686 17.1669 3.15437 16.8514 3.39038C16.5359 3.62639 16.0382 3.7993 15.8092 3.45347C15.4213 2.8763 16.3256 3.28289 16.3233 2.90201Z" fill="#C6B481"/>
<path d="M40.6215 5.92359C40.0653 5.87452 40.4135 6.77883 39.7381 6.67601C39.5886 6.65264 39.3946 6.53113 39.3035 6.58722C38.9997 6.77882 38.6211 7.40973 38.4529 6.62226C38.3127 5.97733 38.96 5.50999 39.4788 5.22024C39.9041 4.98657 40.2406 5.41653 40.5373 5.71563C40.5729 5.78164 40.6012 5.85139 40.6215 5.92359Z" fill="#CAB584"/>
<path d="M5.02944 10.7553C4.17417 10.6455 4.17883 10.0379 4.46392 9.50983C4.8051 8.88593 5.42669 8.75507 6.02725 9.20606C6.5764 9.61965 6.63716 10.2202 6.21653 10.7132C5.9291 11.052 5.44539 11.6058 5.0271 10.7553C5.21716 10.7554 5.40643 10.7311 5.59027 10.6828C5.98285 10.531 6.06932 10.2038 5.92911 9.83696C5.91083 9.7616 5.87773 9.69063 5.83174 9.62819C5.78574 9.56575 5.72777 9.51309 5.66121 9.47329C5.59465 9.43348 5.52083 9.40733 5.44406 9.39635C5.36729 9.38537 5.28909 9.38979 5.21404 9.40935C4.80978 9.52151 4.7163 9.85332 4.81211 10.2319C4.87183 10.4114 4.94448 10.5863 5.02944 10.7553Z" fill="#C7BA94"/>
<path d="M46.3396 16.2023C46.7345 15.8752 47.1762 16.0364 47.5804 16.0107C47.8679 15.9943 48.3095 15.9453 48.2675 16.3869C48.2613 16.4848 48.2327 16.58 48.1841 16.6652C48.1354 16.7503 48.0679 16.8232 47.9867 16.8783C47.9055 16.9333 47.8127 16.969 47.7156 16.9827C47.6184 16.9963 47.5195 16.9876 47.4262 16.9571C46.9822 16.8543 46.5616 16.672 46.3396 16.2023Z" fill="#C5AC71"/>
<path d="M11.5304 6.11491C10.7499 5.713 10.6401 4.79 9.79419 4.86478C9.94226 4.51841 10.2138 4.23942 10.556 4.08198C10.7242 3.98617 11.0397 3.97216 10.9977 4.18947C10.8645 4.85543 11.479 5.28071 11.5304 6.11491Z" fill="#C7BA94"/>
<path d="M43.0797 10.7951C43.3344 10.4703 43.5915 10.1478 43.8392 9.81603C43.9607 9.6548 43.949 9.2856 44.2692 9.43048C44.4316 9.49375 44.5737 9.60003 44.6804 9.73794C44.787 9.87584 44.854 10.0402 44.8744 10.2133C44.8931 10.5521 44.5449 10.4002 44.3533 10.4703C43.97 10.6082 43.6008 10.7881 43.2269 10.9517L43.0797 10.7951Z" fill="#C3B88E"/>
<path d="M24.2498 0.392578C24.9274 0.836552 24.8994 1.43241 24.397 1.90442C23.9296 2.34139 23.3174 2.52598 22.8944 1.74552L23.0556 1.58663C24.1236 1.95583 24.2381 1.84133 24.1026 0.532775L24.2498 0.392578Z" fill="#C3B88E"/>
<path d="M135.664 39.7025C135.596 39.7008 135.529 39.6842 135.468 39.6539C135.407 39.6236 135.354 39.5803 135.311 39.5271C135.269 39.4739 135.238 39.412 135.222 39.3459C135.206 39.2797 135.205 39.2108 135.218 39.144C135.22 39.0048 135.278 38.8722 135.378 38.775C135.477 38.6779 135.612 38.624 135.751 38.6253C135.82 38.6203 135.89 38.63 135.955 38.6537C136.02 38.6775 136.08 38.7147 136.129 38.763C136.179 38.8113 136.218 38.8696 136.244 38.934C136.27 38.9985 136.282 39.0677 136.279 39.137C136.28 39.2157 136.264 39.2937 136.232 39.3658C136.201 39.438 136.155 39.5029 136.097 39.5561C136.039 39.6094 135.971 39.65 135.896 39.6752C135.822 39.7004 135.743 39.7097 135.664 39.7025Z" fill="#C6B481"/>
<path d="M33.216 3.78775C32.9823 3.08674 33.4053 2.64744 33.7745 1.8623C34.0666 2.87877 33.6483 3.33443 33.216 3.78775Z" fill="#D2BF99"/>
<path d="M22.899 1.74523C22.3218 1.22181 22.5485 0.714745 23.0042 0.301148C23.4061 -0.0657141 23.8758 -0.166194 24.2544 0.394615L24.1072 0.532479C23.2098 0.336196 22.9177 0.742785 23.0603 1.58633L22.899 1.74523Z" fill="#C3B88E"/>
<path d="M44.0963 27.3722C44.4842 27.3418 44.8908 27.3418 44.9656 26.8184C45.3348 26.9562 45.433 27.2273 45.1712 27.503C44.7927 27.9003 44.4305 27.6385 44.0963 27.3722Z" fill="#C3A155"/>
<path d="M42.9372 25.8924C42.4068 25.9157 41.8085 26.0886 41.652 25.2988C42.1237 25.3848 42.5659 25.589 42.9372 25.8924Z" fill="#C3A155"/>
<path d="M39.2871 25.2641C39.7545 25.2174 40.2031 25.2758 40.4555 25.7595C40.0167 25.7513 39.5981 25.5738 39.2871 25.2641Z" fill="#C3A155"/>
<path d="M22.9458 17.3336C23.3758 17.2658 23.7099 17.3195 23.6468 17.8827C23.3851 17.7402 23.086 17.6373 22.9458 17.3336Z" fill="#C5A052"/>
<path d="M23.9179 16.3514C23.5767 17.1693 23.308 16.5851 23.0276 16.3047C23.322 16.3187 23.6001 16.5851 23.9179 16.3514Z" fill="#C5A052"/>
<path d="M37.3874 23.3811C37.2074 23.3227 37.0111 23.2432 37.0999 23.0096C37.1495 22.8885 37.242 22.7899 37.3596 22.7325C37.4773 22.6752 37.6119 22.6632 37.7379 22.6988C37.6 22.9208 37.3406 23.075 37.3874 23.3811Z" fill="#C3A155"/>
<path d="M42.4746 26.6689C42.9209 26.6104 43.3392 26.6104 43.5051 27.1525C43.1186 27.1063 42.7572 26.9367 42.4746 26.6689Z" fill="#C3A155"/>
<path d="M36.3054 23.9878C36.5157 23.8079 36.6559 23.85 36.7237 24.121L36.3054 23.9878Z" fill="#C3A155"/>
<path d="M41.3435 26.1946C41.5772 26.1713 41.7711 26.1946 41.8786 26.4283L41.3435 26.1946Z" fill="#C3A155"/>
<path d="M44.0075 26.3831C43.911 26.4042 43.8103 26.3926 43.7211 26.3504C43.6319 26.3081 43.5592 26.2374 43.5144 26.1494L44.0075 26.3831Z" fill="#C3A155"/>
<path d="M41.8623 26.4203C41.9578 26.3965 42.0586 26.4054 42.1484 26.4456C42.2382 26.4859 42.3119 26.5551 42.3577 26.6423C42.2629 26.6521 42.1672 26.6368 42.0802 26.5978C41.9932 26.5588 41.9181 26.4976 41.8623 26.4203Z" fill="#C3A155"/>
<path d="M44.5146 26.6079C44.2996 26.6266 44.101 26.6079 43.9935 26.3742C44.0933 26.3637 44.1941 26.3798 44.2856 26.4208C44.3771 26.4618 44.4562 26.5264 44.5146 26.6079Z" fill="#C3A155"/>
<path d="M38.2635 24.8058C38.4972 24.7777 38.7309 24.773 38.8384 25.0394C38.7307 25.0511 38.6219 25.0359 38.5215 24.9951C38.4212 24.9543 38.3325 24.8892 38.2635 24.8058Z" fill="#C3A155"/>
<path d="M40.3177 24.7386C40.2149 24.7667 40.1056 24.7589 40.0078 24.7164C39.9101 24.6739 39.8298 24.5993 39.7803 24.5049L40.3177 24.7386Z" fill="#C3A155"/>
<path d="M38.8175 25.0351C39.0372 25.0024 39.2218 25.0351 39.3036 25.2688C39.209 25.2776 39.1137 25.2605 39.0281 25.2194C38.9425 25.1782 38.8697 25.1145 38.8175 25.0351Z" fill="#C3A155"/>
<path d="M21.5857 16.3516C21.8194 16.3516 21.9946 16.4193 22.0344 16.6787L21.5857 16.3516Z" fill="#C5A052"/>
<path d="M22.5205 17.0527C22.7261 17.0527 22.9108 17.0971 22.9715 17.3331C22.878 17.3316 22.7866 17.3047 22.7072 17.2553C22.6278 17.206 22.5632 17.1359 22.5205 17.0527Z" fill="#C5A052"/>
<path d="M21.8475 15.4171C21.6349 15.4171 21.4456 15.3914 21.3942 15.1367C21.4879 15.1388 21.5793 15.1659 21.659 15.2152C21.7387 15.2645 21.8038 15.3342 21.8475 15.4171Z" fill="#C5A052"/>
<path d="M37.7122 22.7099C37.7823 22.4762 37.9739 22.4341 38.1795 22.4388L37.7122 22.7099Z" fill="#C3A155"/>
<path d="M39.1889 24.2618C38.9552 24.2875 38.7426 24.2781 38.6398 24.0164C38.7441 24.0114 38.8482 24.0309 38.9436 24.0736C39.039 24.1162 39.1231 24.1806 39.1889 24.2618Z" fill="#C3A155"/>
<path d="M37.1864 24.3342C37.2855 24.3036 37.3924 24.3106 37.4868 24.3536C37.5811 24.3967 37.6564 24.473 37.6982 24.5679C37.6 24.5763 37.5013 24.5592 37.4116 24.5183C37.3219 24.4773 37.2444 24.4139 37.1864 24.3342Z" fill="#C3A155"/>
<path d="M36.7166 24.1072C36.9362 24.0675 37.1232 24.1072 37.2003 24.3409C37.1061 24.3493 37.0113 24.332 36.9261 24.2908C36.841 24.2497 36.7685 24.1862 36.7166 24.1072Z" fill="#C3A155"/>
<path d="M40.4462 25.7479C40.6682 25.7035 40.8551 25.7315 40.9322 25.9815C40.8374 25.9922 40.7415 25.976 40.6555 25.9347C40.5696 25.8933 40.497 25.8286 40.4462 25.7479Z" fill="#C3A155"/>
<path d="M38.6563 24.0306C38.5571 24.0591 38.4511 24.0512 38.3572 24.0084C38.2633 23.9655 38.1879 23.8905 38.1445 23.7969C38.2427 23.7887 38.3413 23.8059 38.431 23.8469C38.5206 23.8878 38.5982 23.951 38.6563 24.0306Z" fill="#C3A155"/>
<path d="M22.5205 15.8849C22.3195 15.8849 22.1443 15.8265 22.0812 15.6045L22.5205 15.8849Z" fill="#C5A052"/>
<path d="M35.3589 24.0749C35.4033 23.9534 35.4664 23.8973 35.5809 24.0071L35.3589 24.0749Z" fill="#C3A155"/>
<path d="M45.3769 13.7815C45.3348 13.7208 45.2437 13.6413 45.246 13.5642C45.2484 13.4871 45.3722 13.4497 45.454 13.417C45.4704 13.417 45.5521 13.5058 45.5708 13.5665C45.6129 13.681 45.5451 13.7488 45.3769 13.7815Z" fill="#FEFEFD"/>
<path d="M8.08364 6.80186L7.97381 6.93739C7.82192 6.79485 8.00418 6.81588 8.05326 6.77148L8.08364 6.80186Z" fill="#FEFEFD"/>
<path d="M8.41051 7.55664L8.44073 7.62908L8.36401 7.62207L8.41051 7.55664Z" fill="#FEFEFD"/>
<path d="M20.0505 1.3224L20.0295 1.23828L20.0993 1.2523L20.0505 1.3224Z" fill="#FEFEFD"/>
</svg>
